<svg width="244" height="30" viewBox="0 0 244 30" fill="none" xmlns="http://www.w3.org/2000/svg">
<g clip-path="url(#clip0_34_5)">
<rect width="244" height="30" fill="white"/>
<path d="M21.504 18.832C22.0373 18.832 22.496 18.992 22.88 19.312C23.2853 19.6107 23.488 20.0053 23.488 20.496C23.488 20.752 23.424 21.072 23.296 21.456C23.1893 21.8187 23.04 22.16 22.848 22.48C22.0587 23.7813 21.0667 24.752 19.872 25.392C18.6987 26.0107 17.2587 26.32 15.552 26.32C13.568 26.32 11.8507 25.84 10.4 24.88C8.94933 23.92 7.82933 22.5653 7.04 20.816C6.272 19.0453 5.888 16.9867 5.888 14.64C5.888 12.2933 6.272 10.2667 7.04 8.56C7.808 6.85333 8.91733 5.552 10.368 4.656C11.8187 3.73867 13.5573 3.28 15.584 3.28C17.056 3.28 18.3893 3.52533 19.584 4.016C20.8 4.48533 21.7493 5.14667 22.432 6C23.136 6.85333 23.488 7.80267 23.488 8.848C23.488 9.72267 23.232 10.4267 22.72 10.96C22.2293 11.4933 21.5787 11.76 20.768 11.76C19.9787 11.76 19.328 11.536 18.816 11.088C18.3253 10.64 18.08 10.0533 18.08 9.328C18.08 8.77333 18.208 8.29333 18.464 7.888C17.7813 7.312 16.8427 7.024 15.648 7.024C13.856 7.024 12.544 7.64267 11.712 8.88C10.88 10.096 10.464 11.984 10.464 14.544C10.464 19.8987 12.256 22.576 15.84 22.576C16.736 22.576 17.4933 22.384 18.112 22C18.752 21.5947 19.2853 20.976 19.712 20.144C19.968 19.632 20.224 19.2907 20.48 19.12C20.736 18.928 21.0773 18.832 21.504 18.832ZM30.1803 7.44C29.3696 7.44 28.6869 7.17333 28.1323 6.64C27.5989 6.08533 27.3323 5.40267 27.3323 4.592C27.3323 3.78133 27.5989 3.10933 28.1323 2.576C28.6869 2.02133 29.3696 1.744 30.1803 1.744C30.9909 1.744 31.6629 2.02133 32.1963 2.576C32.7509 3.10933 33.0283 3.78133 33.0283 4.592C33.0283 5.40267 32.7509 6.08533 32.1963 6.64C31.6629 7.17333 30.9909 7.44 30.1803 7.44ZM27.9403 26C27.5349 26 27.2043 25.904 26.9483 25.712C26.6923 25.4987 26.5643 25.1787 26.5643 24.752V23.504C26.5643 23.0773 26.6923 22.768 26.9483 22.576C27.2043 22.3627 27.5349 22.256 27.9403 22.256H28.5483V13.744H27.9403C27.5349 13.744 27.2043 13.648 26.9483 13.456C26.6923 13.2427 26.5643 12.9227 26.5643 12.496V11.248C26.5643 10.416 27.0229 10 27.9403 10H31.4923C31.9189 10 32.2709 10.1387 32.5483 10.416C32.8256 10.6933 32.9643 11.0453 32.9643 11.472V22.256H33.5403C33.9669 22.256 34.3083 22.3627 34.5642 22.576C34.8203 22.768 34.9483 23.0773 34.9483 23.504V24.752C34.9483 25.1787 34.8203 25.4987 34.5642 25.712C34.3083 25.904 33.9669 26 33.5403 26H27.9403ZM48.1638 9.68C50.0838 9.68 51.5984 10.3947 52.7078 11.824C53.8384 13.2533 54.4038 15.1947 54.4038 17.648C54.4038 20.3787 53.7744 22.512 52.5158 24.048C51.2571 25.5627 49.4971 26.32 47.2358 26.32C45.6144 26.32 44.2598 25.7013 43.1718 24.464V29.616H43.7798C44.1851 29.616 44.5158 29.712 44.7718 29.904C45.0278 30.1173 45.1558 30.4373 45.1558 30.864V32.112C45.1558 32.5387 45.0278 32.848 44.7718 33.04C44.5158 33.2533 44.1851 33.36 43.7798 33.36H38.1798C37.7531 33.36 37.4118 33.2533 37.1558 33.04C36.8998 32.848 36.7718 32.5387 36.7718 32.112V30.864C36.7718 30.4373 36.8998 30.1173 37.1558 29.904C37.4118 29.712 37.7531 29.616 38.1798 29.616H38.7558V13.744H38.1798C37.7531 13.744 37.4118 13.648 37.1558 13.456C36.8998 13.2427 36.7718 12.9227 36.7718 12.496V11.248C36.7718 10.8213 36.8998 10.512 37.1558 10.32C37.4118 10.1067 37.7424 10 38.1478 10H41.7318C42.1371 10 42.4784 10.1387 42.7558 10.416C43.0331 10.6933 43.1718 11.0453 43.1718 11.472V13.008C43.5558 12.0053 44.2064 11.2053 45.1238 10.608C46.0411 9.98933 47.0544 9.68 48.1638 9.68ZM46.5638 22.64C47.6304 22.64 48.4518 22.224 49.0278 21.392C49.6038 20.5387 49.8918 19.3227 49.8918 17.744C49.8918 16.3573 49.6144 15.28 49.0598 14.512C48.5264 13.744 47.7691 13.36 46.7878 13.36C46.1264 13.36 45.5184 13.5627 44.9638 13.968C44.4091 14.3733 43.9718 14.928 43.6518 15.632C43.3318 16.3147 43.1718 17.0827 43.1718 17.936V21.104C43.5984 21.5947 44.1104 21.9787 44.7078 22.256C45.3051 22.512 45.9238 22.64 46.5638 22.64ZM68.323 9.68C69.347 9.68 70.1257 9.95733 70.659 10.512C71.1923 11.0453 71.459 11.7707 71.459 12.688C71.459 13.4987 71.203 14.1707 70.691 14.704C70.179 15.2373 69.5177 15.504 68.707 15.504C68.067 15.504 67.523 15.3227 67.075 14.96C66.6483 14.5973 66.371 14.1067 66.243 13.488C65.5177 13.7227 64.9097 14.2453 64.419 15.056C63.9283 15.8453 63.683 16.7413 63.683 17.744V22.256H64.867C65.7843 22.256 66.243 22.672 66.243 23.504V24.752C66.243 25.584 65.7843 26 64.867 26H58.659C58.2537 26 57.923 25.904 57.667 25.712C57.411 25.4987 57.283 25.1787 57.283 24.752V23.504C57.283 23.0773 57.411 22.768 57.667 22.576C57.923 22.3627 58.2537 22.256 58.659 22.256H59.267V13.744H58.659C58.2537 13.744 57.923 13.648 57.667 13.456C57.411 13.2427 57.283 12.9227 57.283 12.496V11.248C57.283 10.416 57.7417 10 58.659 10H62.211C62.6377 10 62.9897 10.1387 63.267 10.416C63.5443 10.6933 63.683 11.0453 63.683 11.472V13.744C64.0457 12.4853 64.643 11.4933 65.475 10.768C66.3283 10.0427 67.2777 9.68 68.323 9.68ZM77.1803 7.44C76.3696 7.44 75.6869 7.17333 75.1323 6.64C74.5989 6.08533 74.3323 5.40267 74.3323 4.592C74.3323 3.78133 74.5989 3.10933 75.1323 2.576C75.6869 2.02133 76.3696 1.744 77.1803 1.744C77.9909 1.744 78.6629 2.02133 79.1963 2.576C79.7509 3.10933 80.0283 3.78133 80.0283 4.592C80.0283 5.40267 79.7509 6.08533 79.1963 6.64C78.6629 7.17333 77.9909 7.44 77.1803 7.44ZM74.9403 26C74.5349 26 74.2043 25.904 73.9483 25.712C73.6923 25.4987 73.5643 25.1787 73.5643 24.752V23.504C73.5643 23.0773 73.6923 22.768 73.9483 22.576C74.2043 22.3627 74.5349 22.256 74.9403 22.256H75.5483V13.744H74.9403C74.5349 13.744 74.2043 13.648 73.9483 13.456C73.6923 13.2427 73.5643 12.9227 73.5643 12.496V11.248C73.5643 10.416 74.0229 10 74.9403 10H78.4923C78.9189 10 79.2709 10.1387 79.5483 10.416C79.8256 10.6933 79.9643 11.0453 79.9643 11.472V22.256H80.5403C80.9669 22.256 81.3083 22.3627 81.5642 22.576C81.8203 22.768 81.9483 23.0773 81.9483 23.504V24.752C81.9483 25.1787 81.8203 25.4987 81.5642 25.712C81.3083 25.904 80.9669 26 80.5403 26H74.9403ZM98.8118 22.256C99.2171 22.256 99.5478 22.3627 99.8038 22.576C100.06 22.768 100.188 23.0773 100.188 23.504V24.752C100.188 25.1787 100.06 25.4987 99.8038 25.712C99.5478 25.904 99.2171 26 98.8118 26H95.2598C94.8544 26 94.5024 25.8613 94.2038 25.584C93.9264 25.2853 93.7878 24.9333 93.7878 24.528V22.992C93.3611 23.9733 92.7104 24.7733 91.8358 25.392C90.9824 26.0107 90.0651 26.32 89.0838 26.32C87.6118 26.32 86.4171 25.8827 85.4998 25.008C84.6038 24.1333 84.1558 22.9813 84.1558 21.552C84.1558 19.9307 84.6784 18.736 85.7238 17.968C86.7691 17.1787 88.3478 16.784 90.4598 16.784C91.4411 16.784 92.5504 16.9013 93.7878 17.136V15.952C93.7878 15.0347 93.5424 14.3307 93.0518 13.84C92.5824 13.3493 91.8998 13.104 91.0038 13.104C90.4278 13.104 90.0011 13.2 89.7238 13.392C89.6811 14.0533 89.4358 14.608 88.9878 15.056C88.5398 15.4827 87.9851 15.696 87.3238 15.696C86.5984 15.696 86.0118 15.4827 85.5638 15.056C85.1158 14.608 84.8918 14.032 84.8918 13.328C84.8918 12.2187 85.4571 11.3333 86.5878 10.672C87.7184 10.0107 89.1904 9.68 91.0038 9.68C93.3718 9.68 95.1638 10.288 96.3798 11.504C97.5958 12.6987 98.2038 14.384 98.2038 16.56V22.256H98.8118ZM90.4278 23.056C91.2811 23.056 92.0278 22.704 92.6678 22C93.3291 21.2747 93.7024 20.4107 93.7878 19.408C93.0838 19.28 92.1984 19.216 91.1318 19.216C90.2358 19.216 89.5851 19.3867 89.1798 19.728C88.7744 20.048 88.5718 20.5707 88.5718 21.296C88.5718 21.8293 88.7424 22.256 89.0838 22.576C89.4251 22.896 89.8731 23.056 90.4278 23.056ZM119.656 22.256C120.573 22.256 121.032 22.672 121.032 23.504V24.752C121.032 25.584 120.573 26 119.656 26H114.28C113.853 26 113.512 25.904 113.256 25.712C113 25.4987 112.872 25.1787 112.872 24.752V23.504C112.872 23.0773 113 22.768 113.256 22.576C113.512 22.3627 113.853 22.256 114.28 22.256H114.632V17.488C114.632 15.952 114.461 14.8853 114.12 14.288C113.8 13.6693 113.213 13.36 112.36 13.36C111.741 13.36 111.155 13.552 110.6 13.936C110.067 14.32 109.629 14.8427 109.288 15.504C108.968 16.144 108.808 16.8267 108.808 17.552V22.256H109.192C109.597 22.256 109.928 22.3627 110.184 22.576C110.44 22.768 110.568 23.0773 110.568 23.504V24.752C110.568 25.1787 110.44 25.4987 110.184 25.712C109.928 25.904 109.597 26 109.192 26H103.784C103.379 26 103.048 25.904 102.792 25.712C102.536 25.4987 102.408 25.1787 102.408 24.752V23.504C102.408 23.0773 102.536 22.768 102.792 22.576C103.048 22.3627 103.379 22.256 103.784 22.256H104.392V13.744H103.784C103.379 13.744 103.048 13.648 102.792 13.456C102.536 13.2427 102.408 12.9227 102.408 12.496V11.248C102.408 10.416 102.867 10 103.784 10H107.336C107.763 10 108.115 10.1387 108.392 10.416C108.669 10.6933 108.808 11.0453 108.808 11.472V13.2C109.213 12.176 109.864 11.3333 110.76 10.672C111.677 10.0107 112.627 9.68 113.608 9.68C115.357 9.68 116.701 10.2453 117.64 11.376C118.6 12.5067 119.08 14.128 119.08 16.24V22.256H119.656Z" fill="black"/>
<path d="M143.96 11.888C143.96 12.0587 143.907 12.2187 143.8 12.368C143.715 12.496 143.587 12.5813 143.416 12.624L135.32 15.536L143.416 18.448C143.587 18.512 143.715 18.6187 143.8 18.768C143.907 18.896 143.96 19.0453 143.96 19.216V21.36C143.96 21.6373 143.864 21.872 143.672 22.064C143.48 22.2347 143.235 22.32 142.936 22.32C142.744 22.32 142.509 22.2667 142.232 22.16L129.88 17.392C129.624 17.3067 129.421 17.1573 129.272 16.944C129.123 16.7093 129.048 16.464 129.048 16.208V14.896C129.048 14.64 129.123 14.4053 129.272 14.192C129.421 13.9573 129.624 13.7973 129.88 13.712L142.232 8.944C142.509 8.83733 142.744 8.784 142.936 8.784C143.235 8.784 143.48 8.86933 143.672 9.04C143.864 9.21067 143.96 9.43467 143.96 9.712V11.888ZM172.03 7.344V22.256H172.606C173.033 22.256 173.374 22.3627 173.63 22.576C173.886 22.768 174.014 23.0773 174.014 23.504V24.752C174.014 25.1787 173.886 25.4987 173.63 25.712C173.374 25.904 173.033 26 172.606 26H166.974C166.057 26 165.598 25.584 165.598 24.752V23.504C165.598 22.672 166.057 22.256 166.974 22.256H167.55V8.112L162.782 18.864C162.547 19.44 162.153 19.728 161.598 19.728H160.254C159.699 19.728 159.305 19.44 159.07 18.864L154.302 8.112V22.256H154.878C155.795 22.256 156.254 22.672 156.254 23.504V24.752C156.254 25.584 155.795 26 154.878 26H149.886C149.459 26 149.118 25.904 148.862 25.712C148.606 25.4987 148.478 25.1787 148.478 24.752V23.504C148.478 23.0773 148.606 22.768 148.862 22.576C149.118 22.3627 149.459 22.256 149.886 22.256H150.462V7.344H149.886C149.459 7.344 149.118 7.248 148.862 7.056C148.606 6.84267 148.478 6.52267 148.478 6.096V4.848C148.478 4.42133 148.606 4.112 148.862 3.92C149.118 3.70667 149.449 3.6 149.854 3.6H155.998C156.617 3.6 157.033 3.888 157.246 4.464L161.31 13.68L165.342 4.464C165.577 3.888 165.993 3.6 166.59 3.6H172.606C173.033 3.6 173.374 3.70667 173.63 3.92C173.886 4.112 174.014 4.42133 174.014 4.848V6.096C174.014 6.52267 173.886 6.84267 173.63 7.056C173.374 7.248 173.033 7.344 172.606 7.344H172.03ZM180.774 7.44C179.963 7.44 179.281 7.17333 178.726 6.64C178.193 6.08533 177.926 5.40267 177.926 4.592C177.926 3.78133 178.193 3.10933 178.726 2.576C179.281 2.02133 179.963 1.744 180.774 1.744C181.585 1.744 182.257 2.02133 182.79 2.576C183.345 3.10933 183.622 3.78133 183.622 4.592C183.622 5.40267 183.345 6.08533 182.79 6.64C182.257 7.17333 181.585 7.44 180.774 7.44ZM178.534 26C178.129 26 177.798 25.904 177.542 25.712C177.286 25.4987 177.158 25.1787 177.158 24.752V23.504C177.158 23.0773 177.286 22.768 177.542 22.576C177.798 22.3627 178.129 22.256 178.534 22.256H179.142V13.744H178.534C178.129 13.744 177.798 13.648 177.542 13.456C177.286 13.2427 177.158 12.9227 177.158 12.496V11.248C177.158 10.416 177.617 10 178.534 10H182.086C182.513 10 182.865 10.1387 183.142 10.416C183.419 10.6933 183.558 11.0453 183.558 11.472V22.256H184.134C184.561 22.256 184.902 22.3627 185.158 22.576C185.414 22.768 185.542 23.0773 185.542 23.504V24.752C185.542 25.1787 185.414 25.4987 185.158 25.712C184.902 25.904 184.561 26 184.134 26H178.534ZM198.886 9.68C199.91 9.68 200.688 9.95733 201.222 10.512C201.755 11.0453 202.022 11.7707 202.022 12.688C202.022 13.4987 201.766 14.1707 201.254 14.704C200.742 15.2373 200.08 15.504 199.27 15.504C198.63 15.504 198.086 15.3227 197.638 14.96C197.211 14.5973 196.934 14.1067 196.806 13.488C196.08 13.7227 195.472 14.2453 194.982 15.056C194.491 15.8453 194.246 16.7413 194.246 17.744V22.256H195.43C196.347 22.256 196.806 22.672 196.806 23.504V24.752C196.806 25.584 196.347 26 195.43 26H189.222C188.816 26 188.486 25.904 188.23 25.712C187.974 25.4987 187.846 25.1787 187.846 24.752V23.504C187.846 23.0773 187.974 22.768 188.23 22.576C188.486 22.3627 188.816 22.256 189.222 22.256H189.83V13.744H189.222C188.816 13.744 188.486 13.648 188.23 13.456C187.974 13.2427 187.846 12.9227 187.846 12.496V11.248C187.846 10.416 188.304 10 189.222 10H192.774C193.2 10 193.552 10.1387 193.83 10.416C194.107 10.6933 194.246 11.0453 194.246 11.472V13.744C194.608 12.4853 195.206 11.4933 196.038 10.768C196.891 10.0427 197.84 9.68 198.886 9.68ZM221.076 22.256C221.481 22.256 221.812 22.3627 222.068 22.576C222.324 22.768 222.452 23.0773 222.452 23.504V24.752C222.452 25.1787 222.324 25.4987 222.068 25.712C221.812 25.904 221.481 26 221.076 26H217.524C217.118 26 216.766 25.8613 216.468 25.584C216.19 25.2853 216.052 24.9333 216.052 24.528V22.8C215.625 23.824 214.974 24.6667 214.1 25.328C213.225 25.9893 212.308 26.32 211.348 26.32C209.598 26.32 208.265 25.7547 207.348 24.624C206.43 23.4933 205.972 21.872 205.972 19.76V13.744H205.396C204.478 13.744 204.02 13.328 204.02 12.496V11.248C204.02 10.416 204.478 10 205.396 10H208.948C209.374 10 209.726 10.1387 210.004 10.416C210.281 10.6933 210.42 11.0453 210.42 11.472V18.512C210.42 20.0693 210.569 21.1467 210.868 21.744C211.188 22.3413 211.764 22.64 212.595 22.64C213.214 22.64 213.79 22.448 214.324 22.064C214.857 21.68 215.273 21.168 215.572 20.528C215.892 19.8667 216.052 19.1733 216.052 18.448V13.744H215.476C215.049 13.744 214.708 13.648 214.452 13.456C214.196 13.2427 214.068 12.9227 214.068 12.496V11.248C214.068 10.8213 214.196 10.512 214.452 10.32C214.708 10.1067 215.049 10 215.476 10H219.028C219.433 10 219.774 10.1387 220.052 10.416C220.329 10.6933 220.468 11.0453 220.468 11.472V22.256H221.076ZM240.112 13.712C240.368 13.7973 240.56 13.9573 240.688 14.192C240.837 14.4053 240.912 14.64 240.912 14.896V16.208C240.912 16.464 240.837 16.7093 240.688 16.944C240.56 17.1573 240.368 17.3067 240.112 17.392L227.728 22.16C227.472 22.2667 227.237 22.32 227.024 22.32C226.725 22.32 226.48 22.2347 226.288 22.064C226.117 21.872 226.032 21.6373 226.032 21.36V19.216C226.032 19.0453 226.074 18.896 226.16 18.768C226.266 18.6187 226.394 18.512 226.544 18.448L234.64 15.536L226.544 12.624C226.394 12.5813 226.266 12.496 226.16 12.368C226.074 12.2187 226.032 12.0587 226.032 11.888V9.712C226.032 9.43467 226.117 9.21067 226.288 9.04C226.48 8.86933 226.725 8.784 227.024 8.784C227.237 8.784 227.472 8.83733 227.728 8.944L240.112 13.712Z" fill="#14AE51"/>
</g>
<defs>
<clipPath id="clip0_34_5">
<rect width="244" height="30" fill="white"/>
</clipPath>
</defs>
</svg>
